<svg xmlns="http://www.w3.org/2000/svg" viewBox="0 0 64 64" fill="none">
  <!-- Back book -->
  <path d="M14 12C14 9.79 15.79 8 18 8H42C44.21 8 46 9.79 46 12V52C46 54.21 44.21 56 42 56H18C15.79 56 14 54.21 14 52V12Z" fill="#EDD382" stroke="#020122" stroke-width="3" stroke-linecap="round" stroke-linejoin="round"/>
  <!-- Front book -->
  <path d="M20 8C20 8 22 12 22 16V56H46C48.21 56 50 54.21 50 52V12C50 9.79 48.21 8 46 8H20Z" fill="#FC9E4F" stroke="#020122" stroke-width="3" stroke-linecap="round" stroke-linejoin="round"/>
  <!-- Spine line -->
  <line x1="22" y1="8" x2="22" y2="56" stroke="#020122" stroke-width="3" stroke-linecap="round"/>
  <!-- Page lines -->
  <line x1="29" y1="20" x2="43" y2="20" stroke="#020122" stroke-width="2.5" stroke-linecap="round"/>
  <line x1="29" y1="28" x2="43" y2="28" stroke="#020122" stroke-width="2.5" stroke-linecap="round"/>
  <line x1="29" y1="36" x2="39" y2="36" stroke="#020122" stroke-width="2.5" stroke-linecap="round"/>
</svg>
