<svg xmlns="http://www.w3.org/2000/svg" viewBox="0 0 64 64" fill="none">
  <!-- Hut body -->
  <path d="M12 38H52V54C52 55.1 51.1 56 50 56H14C12.9 56 12 55.1 12 54V38Z" fill="#FC9E4F" stroke="#020122" stroke-width="3" stroke-linejoin="round"/>
  <!-- Thatched roof - big dome shape -->
  <path d="M6 40C6 40 10 16 32 16C54 16 58 40 58 40Z" fill="#EDD382" stroke="#020122" stroke-width="3" stroke-linecap="round" stroke-linejoin="round"/>
  <!-- Thatch texture lines -->
  <path d="M14 36C14 36 18 22 32 22C46 22 50 36 50 36" stroke="#020122" stroke-width="2" stroke-linecap="round" fill="none" opacity="0.4"/>
  <path d="M10 38C10 38 14 26 32 26C50 26 54 38 54 38" stroke="#020122" stroke-width="1.5" stroke-linecap="round" fill="none" opacity="0.25"/>
  <!-- Door opening (rounded top like a hut door) -->
  <path d="M25 56V44C25 41.24 27.24 39 30 39H34C36.76 39 39 41.24 39 44V56" fill="#654F6F" stroke="#020122" stroke-width="2.5" stroke-linejoin="round"/>
  <!-- Door knob -->
  <circle cx="36" cy="48" r="1.8" fill="#EDD382"/>
  <!-- Roof pole/finial on top -->
  <line x1="32" y1="10" x2="32" y2="18" stroke="#020122" stroke-width="3" stroke-linecap="round"/>
  <circle cx="32" cy="9" r="3" fill="#FC9E4F" stroke="#020122" stroke-width="2.5"/>
</svg>
